<svg width="37" height="30" viewBox="0 0 37 30" fill="none" xmlns="http://www.w3.org/2000/svg">
<path d="M35.2983 21.873C35.4486 21.0469 35.4486 20.2031 35.2983 19.377L36.79 18.5039C36.9634 18.4043 37.0386 18.1992 36.9808 18.0059C36.5934 16.7402 35.9285 15.5918 35.0612 14.6426C34.9282 14.4961 34.7143 14.4609 34.5408 14.5605L33.0491 15.4336C32.4189 14.8887 31.6962 14.4668 30.9156 14.1855V12.4395C30.9156 12.2402 30.7768 12.0645 30.586 12.0234C29.2967 11.7305 27.9842 11.7422 26.7584 12.0234C26.5676 12.0645 26.4289 12.2402 26.4289 12.4395V14.1855C25.6483 14.4668 24.9256 14.8887 24.2954 15.4336L22.8037 14.5605C22.636 14.4609 22.4163 14.4961 22.2833 14.6426C21.416 15.5918 20.7511 16.7402 20.3637 18.0059C20.3059 18.1992 20.3868 18.4043 20.5545 18.5039L22.0462 19.377C21.8959 20.2031 21.8959 21.0469 22.0462 21.873L20.5545 22.7461C20.3811 22.8457 20.3059 23.0508 20.3637 23.2441C20.7511 24.5098 21.416 25.6523 22.2833 26.6074C22.4163 26.7539 22.6302 26.7891 22.8037 26.6895L24.2954 25.8164C24.9256 26.3613 25.6483 26.7832 26.4289 27.0645V28.8105C26.4289 29.0098 26.5676 29.1855 26.7584 29.2266C28.0478 29.5195 29.3603 29.5078 30.586 29.2266C30.7768 29.1855 30.9156 29.0098 30.9156 28.8105V27.0645C31.6962 26.7832 32.4189 26.3613 33.0491 25.8164L34.5408 26.6895C34.7085 26.7891 34.9282 26.7539 35.0612 26.6074C35.9285 25.6582 36.5934 24.5098 36.9808 23.2441C37.0386 23.0508 36.9576 22.8457 36.79 22.7461L35.2983 21.873ZM28.678 23.4668C27.1285 23.4668 25.8738 22.1895 25.8738 20.625C25.8738 19.0605 27.1343 17.7832 28.678 17.7832C30.2218 17.7832 31.4822 19.0605 31.4822 20.625C31.4822 22.1895 30.2276 23.4668 28.678 23.4668ZM12.9514 15C17.0391 15 20.3521 11.6426 20.3521 7.5C20.3521 3.35742 17.0391 0 12.9514 0C8.86359 0 5.55059 3.35742 5.55059 7.5C5.55059 11.6426 8.86359 15 12.9514 15ZM24.5845 28.2715C24.4515 28.2012 24.3185 28.1191 24.1913 28.043L23.7345 28.3125C23.3876 28.5117 22.9945 28.623 22.6013 28.623C21.9711 28.623 21.364 28.3535 20.9303 27.8848C19.8723 26.7246 19.0628 25.3125 18.606 23.8066C18.288 22.7695 18.7159 21.6738 19.641 21.1289L20.0977 20.8594C20.092 20.707 20.092 20.5547 20.0977 20.4023L19.641 20.1328C18.7159 19.5938 18.288 18.4922 18.606 17.4551C18.6581 17.2852 18.7332 17.1152 18.791 16.9453C18.5713 16.9277 18.3574 16.875 18.1319 16.875H17.1663C15.8828 17.4727 14.4546 17.8125 12.9514 17.8125C11.4481 17.8125 10.0257 17.4727 8.73639 16.875H7.77082C3.48068 16.875 0 20.4023 0 24.75V27.1875C0 28.7402 1.2431 30 2.77529 30H23.1274C23.7114 30 24.2549 29.8125 24.7001 29.502C24.6307 29.2793 24.5845 29.0508 24.5845 28.8105V28.2715Z" fill="white"/>
</svg>
