<svg width="18" height="22" viewBox="0 0 18 22" fill="none" xmlns="http://www.w3.org/2000/svg">
<path d="M1.2381 19.6667C1.2381 20.1971 1.43376 20.7058 1.78204 21.0809C2.13032 21.4559 2.60269 21.6667 3.09524 21.6667H14.2381C14.7306 21.6667 15.203 21.4559 15.5513 21.0809C15.8996 20.7058 16.0952 20.1971 16.0952 19.6667V5.66667H1.2381V19.6667ZM11.7619 9C11.7619 8.82319 11.8271 8.65362 11.9432 8.52859C12.0593 8.40357 12.2168 8.33333 12.381 8.33333C12.5451 8.33333 12.7026 8.40357 12.8187 8.52859C12.9348 8.65362 13 8.82319 13 9V18.3333C13 18.5101 12.9348 18.6797 12.8187 18.8047C12.7026 18.9298 12.5451 19 12.381 19C12.2168 19 12.0593 18.9298 11.9432 18.8047C11.8271 18.6797 11.7619 18.5101 11.7619 18.3333V9ZM8.04762 9C8.04762 8.82319 8.11284 8.65362 8.22893 8.52859C8.34503 8.40357 8.50249 8.33333 8.66667 8.33333C8.83085 8.33333 8.98831 8.40357 9.1044 8.52859C9.22049 8.65362 9.28571 8.82319 9.28571 9V18.3333C9.28571 18.5101 9.22049 18.6797 9.1044 18.8047C8.98831 18.9298 8.83085 19 8.66667 19C8.50249 19 8.34503 18.9298 8.22893 18.8047C8.11284 18.6797 8.04762 18.5101 8.04762 18.3333V9ZM4.33333 9C4.33333 8.82319 4.39855 8.65362 4.51465 8.52859C4.63074 8.40357 4.7882 8.33333 4.95238 8.33333C5.11656 8.33333 5.27402 8.40357 5.39011 8.52859C5.50621 8.65362 5.57143 8.82319 5.57143 9V18.3333C5.57143 18.5101 5.50621 18.6797 5.39011 18.8047C5.27402 18.9298 5.11656 19 4.95238 19C4.7882 19 4.63074 18.9298 4.51465 18.8047C4.39855 18.6797 4.33333 18.5101 4.33333 18.3333V9ZM16.7143 1.66667H12.0714L11.7077 0.887502C11.6307 0.720925 11.512 0.580803 11.3651 0.482902C11.2181 0.385 11.0487 0.333202 10.8759 0.333336H6.45357C6.28116 0.332622 6.11205 0.384226 5.96561 0.482237C5.81917 0.580248 5.70133 0.7207 5.6256 0.887502L5.2619 1.66667H0.619048C0.454866 1.66667 0.297409 1.73691 0.181315 1.86193C0.0652209 1.98695 0 2.15652 0 2.33333L0 3.66667C0 3.84348 0.0652209 4.01305 0.181315 4.13807C0.297409 4.2631 0.454866 4.33333 0.619048 4.33333H16.7143C16.8785 4.33333 17.0359 4.2631 17.152 4.13807C17.2681 4.01305 17.3333 3.84348 17.3333 3.66667V2.33333C17.3333 2.15652 17.2681 1.98695 17.152 1.86193C17.0359 1.73691 16.8785 1.66667 16.7143 1.66667V1.66667Z" fill="#ECF4FF"/>
</svg>
