<svg width="122" height="122" viewBox="0 0 122 122" fill="none" xmlns="http://www.w3.org/2000/svg">
<path d="M61 0C27.3024 0 0 27.3024 0 61C0 94.6976 27.3024 122 61 122C94.6976 122 122 94.6976 122 61C122 27.3024 94.6976 0 61 0ZM61 23.6129C72.954 23.6129 82.6452 33.304 82.6452 45.2581C82.6452 57.2121 72.954 66.9032 61 66.9032C49.046 66.9032 39.3548 57.2121 39.3548 45.2581C39.3548 33.304 49.046 23.6129 61 23.6129ZM61 108.226C46.5617 108.226 33.6238 101.683 24.9657 91.4508C29.5899 82.7435 38.6415 76.7419 49.1935 76.7419C49.7839 76.7419 50.3742 76.8403 50.9399 77.0125C54.1375 78.0456 57.4827 78.7097 61 78.7097C64.5173 78.7097 67.8871 78.0456 71.0601 77.0125C71.6258 76.8403 72.2161 76.7419 72.8065 76.7419C83.3585 76.7419 92.4101 82.7435 97.0343 91.4508C88.3762 101.683 75.4383 108.226 61 108.226Z" fill="white"/>
</svg>
